<svg xmlns="http://www.w3.org/2000/svg" xmlns:xlink="http://www.w3.org/1999/xlink" width="9670" height="2500" viewBox="0 0 9670 2500">
  <defs>
    <style>
      .cls-1, .cls-2, .cls-3, .cls-4, .cls-5 {
        fill-rule: evenodd;
      }

      .cls-1 {
        fill: url(#linear-gradient);
      }

      .cls-2 {
        fill: url(#linear-gradient-2);
      }

      .cls-3 {
        fill: url(#linear-gradient-3);
      }

      .cls-4 {
        fill: #6b62ff;
      }
    </style>
    <linearGradient id="linear-gradient" x1="1547.25" y1="2228.47" x2="1547.25" y2="486.656" gradientUnits="userSpaceOnUse">
      <stop offset="0" stop-color="#6864ff"/>
      <stop offset="1" stop-color="#b060ff" stop-opacity="0.878"/>
    </linearGradient>
    <linearGradient id="linear-gradient-2" x1="1022.432" y1="1209.62" x2="1283.314" y2="356.312" gradientUnits="userSpaceOnUse">
      <stop offset="0" stop-color="#00f1ff" stop-opacity="0.161"/>
      <stop offset="1" stop-color="#585dff" stop-opacity="0.949"/>
    </linearGradient>
    <linearGradient id="linear-gradient-3" x1="1804.713" y1="1066.22" x2="2067.727" y2="201.625" gradientUnits="userSpaceOnUse">
      <stop offset="0" stop-color="#6cfaff" stop-opacity="0.251"/>
      <stop offset="1" stop-color="#00e4f5"/>
    </linearGradient>
  </defs>
  <path id="_3" data-name="3" class="cls-1" d="M1249.08,2062.03V543.6c0-37.392,28.22-62.425,63.03-55.921L1782.39,573.6c34.81,6.5,63.03,42.088,63.03,79.477V2171.51c0,37.39-28.22,62.43-63.03,55.92l-470.28-85.92C1277.3,2135,1249.08,2099.42,1249.08,2062.03Z"/>
  <path id="_2" data-name="2" class="cls-2" d="M1758.86,1208.19L546.926,1002.66c-48.607-9.105-88.005-58.851-88.005-111.119V435.911c0-52.267,39.4-87.263,88.005-78.163L1758.86,563.286c48.6,9.1,88,58.844,88,111.112V1130.03C1846.86,1182.29,1807.46,1217.29,1758.86,1208.19Z"/>
  <path id="_1" data-name="1" class="cls-3" d="M2535.96,1064.78L1336.5,847.986c-49.22-9.215-89.12-59.588-89.12-112.512V282.222c0-52.924,39.9-88.358,89.12-79.146L2535.96,419.87c49.21,9.213,89.1,59.585,89.1,112.51V985.631C2625.06,1038.56,2585.17,1073.99,2535.96,1064.78Z"/>
  <path id="tank" class="cls-4" d="M5924.07,1565.29v521.75a35.883,35.883,0,0,1-35.85,35.92H5675.03a35.883,35.883,0,0,1-35.85-35.92V1565.29a13.288,13.288,0,0,0-13.27-13.3h-45.32a35.883,35.883,0,0,1-35.85-35.92V1349.74a35.89,35.89,0,0,1,35.85-35.92h45.32a13.288,13.288,0,0,0,13.27-13.3V1106.85a35.892,35.892,0,0,1,35.85-35.93h213.19a35.892,35.892,0,0,1,35.85,35.93v193.67a13.3,13.3,0,0,0,13.28,13.3h113a35.89,35.89,0,0,1,35.85,35.92v166.33a35.883,35.883,0,0,1-35.85,35.92h-113A13.3,13.3,0,0,0,5924.07,1565.29Zm928.98-251.47h209.41a40.45,40.45,0,0,1,40.41,40.49v731.93a36.684,36.684,0,0,1-36.64,36.72H6853.05a36.677,36.677,0,0,1-36.64-36.72v-51.25a0.678,0.678,0,0,0-1.22-.41q-91.125,113.64-245.91,113.61-88.155,0-162.11-32.33a390.292,390.292,0,0,1-129.08-90.69q-55.11-58.335-85.78-137.22-30.69-78.855-30.69-171.92,0-86.73,29.91-164.83,29.865-78.075,83.41-136.43,53.505-58.335,127.5-92.27,73.965-33.9,163.7-33.91,150.21,0,249.09,104.43a0.678,0.678,0,0,0,1.18-.46v-42.02A36.677,36.677,0,0,1,6853.05,1313.82Zm-395.52,402.21q0,39.45,14.17,73.34a188.423,188.423,0,0,0,38.56,59.15,172.869,172.869,0,0,0,58.24,39.43q33.825,14.19,73.19,14.2a183.31,183.31,0,0,0,71.61-14.2,173.406,173.406,0,0,0,58.25-39.43,204.546,204.546,0,0,0,39.35-58.36,170.759,170.759,0,0,0,14.95-70.97,176.318,176.318,0,0,0-14.95-71.78,201.566,201.566,0,0,0-39.35-59.15,173.846,173.846,0,0,0-58.25-39.43,183.3,183.3,0,0,0-71.61-14.18q-39.36,0-73.19,14.18a173.305,173.305,0,0,0-58.24,39.43,194.454,194.454,0,0,0-38.56,57.58Q6457.525,1678.18,6457.53,1716.03Zm874.78-402.21h208.7a40.382,40.382,0,0,1,40.34,40.42v34.3a10.377,10.377,0,0,0,18.06,6.96q49.41-53.91,99.99-74.58,59.805-24.435,140.09-24.44,84.99,0,145.6,27.6a290.584,290.584,0,0,1,103.09,78.07q34.6,41.04,47.22,91.48,12.585,50.5,12.59,115.14v478.02a36.129,36.129,0,0,1-36.09,36.17H7899.2a36.131,36.131,0,0,1-36.1-36.17V1714.45q0-59.925-8.66-97-8.67-37.035-30.69-59.15a108.024,108.024,0,0,0-42.5-26.81,157.931,157.931,0,0,0-50.36-7.89q-72.42,0-110.98,43.38-38.58,43.38-38.56,123.81v396a36.129,36.129,0,0,1-36.09,36.17h-212.7a36.131,36.131,0,0,1-36.1-36.17V1349.74A35.883,35.883,0,0,1,7332.31,1313.82ZM8626.47,846.949V1575.79a12.561,12.561,0,0,0,21.33,9.02l268.11-261.6a33.013,33.013,0,0,1,23.06-9.39h292.31c30.1,0,44.54,37.03,22.41,57.48l-342.33,316.33,372.69,378.96c20.59,20.93,5.79,56.37-23.55,56.37H8953.87a33.044,33.044,0,0,1-23.94-10.28l-281.19-295.94a12.913,12.913,0,0,0-22.27,8.93v264.17a33.09,33.09,0,0,1-33.06,33.12H8374.63a33.09,33.09,0,0,1-33.06-33.12V846.949a33.093,33.093,0,0,1,33.06-33.126h218.78A33.093,33.093,0,0,1,8626.47,846.949Z"/>
  <path id="tai" class="cls-5" d="M3698.36,1213.57v873.31a36.041,36.041,0,0,1-36.01,36.08H3425.86a36.041,36.041,0,0,1-36.01-36.08V1213.57a18.025,18.025,0,0,0-18.01-18.04h-199.4a36.056,36.056,0,0,1-36.01-36.09V969.782a36.051,36.051,0,0,1,36.01-36.081h743.32a36.044,36.044,0,0,1,36.01,36.081V1159.44a36.05,36.05,0,0,1-36.01,36.09H3716.37A18.025,18.025,0,0,0,3698.36,1213.57Zm936.02,100.25h214.7a35.926,35.926,0,0,1,35.89,35.96v737.23a35.924,35.924,0,0,1-35.89,35.95h-214.7a35.915,35.915,0,0,1-35.88-35.95v-53.95q-91.305,115.155-247.12,115.13-88.17,0-162.12-32.33a390.354,390.354,0,0,1-129.07-90.69q-55.125-58.335-85.79-137.22-30.675-78.855-30.68-171.92,0-86.73,29.9-164.83,29.88-78.075,83.42-136.43,53.49-58.335,127.49-92.27,73.98-33.9,163.7-33.91,151.11,0,250.27,105.68v-44.49A35.918,35.918,0,0,1,4634.38,1313.82Zm-394.76,402.21q0,39.45,14.17,73.34a188.423,188.423,0,0,0,38.56,59.15,172.812,172.812,0,0,0,58.25,39.43q33.825,14.19,73.18,14.2a183.4,183.4,0,0,0,71.62-14.2,173.364,173.364,0,0,0,58.24-39.43,204.546,204.546,0,0,0,39.35-58.36,170.6,170.6,0,0,0,14.95-70.97,176.154,176.154,0,0,0-14.95-71.78,201.566,201.566,0,0,0-39.35-59.15,173.8,173.8,0,0,0-58.24-39.43,183.38,183.38,0,0,0-71.62-14.18q-39.36,0-73.18,14.18a173.248,173.248,0,0,0-58.25,39.43,194.454,194.454,0,0,0-38.56,57.58Q4239.63,1678.18,4239.62,1716.03Zm835.89-712.92A155.367,155.367,0,0,1,5088.1,940.8a163.505,163.505,0,0,1,85.78-85.962,159.515,159.515,0,0,1,124.35,0,163.505,163.505,0,0,1,85.78,85.962,160.442,160.442,0,0,1,0,124.6,163.465,163.465,0,0,1-85.78,85.96,159.469,159.469,0,0,1-124.35,0,163.465,163.465,0,0,1-85.78-85.96A155.189,155.189,0,0,1,5075.51,1003.11Zm303.78,346.63v737.3a35.883,35.883,0,0,1-35.85,35.92h-213.2a35.883,35.883,0,0,1-35.85-35.92v-737.3a35.883,35.883,0,0,1,35.85-35.92h213.2A35.883,35.883,0,0,1,5379.29,1349.74Z"/>
</svg>
