<?xml version="1.0" standalone="no"?>
<!DOCTYPE svg PUBLIC "-//W3C//DTD SVG 20010904//EN"
 "http://www.w3.org/TR/2001/REC-SVG-20010904/DTD/svg10.dtd">
<svg version="1.0" xmlns="http://www.w3.org/2000/svg"
 width="744.000000pt" height="744.000000pt" viewBox="0 0 744.000000 744.000000"
 preserveAspectRatio="xMidYMid meet">
<metadata>
Created by potrace 1.11, written by Peter Selinger 2001-2013
</metadata>
<g transform="translate(0.000000,744.000000) scale(0.100000,-0.100000)"
fill="#000000" stroke="none">
<path d="M3615 7295 c-92 -121 -322 -416 -775 -995 -475 -609 -1147 -1447
-1682 -2100 -47 -58 -201 -242 -341 -410 -140 -168 -254 -307 -252 -308 6 -6
76 -21 350 -73 403 -77 854 -163 1145 -219 455 -88 766 -147 1013 -194 130
-25 283 -55 338 -66 56 -11 103 -20 105 -20 2 0 4 -49 4 -110 l0 -110 -1580 0
-1580 0 0 -68 c0 -275 123 -689 301 -1017 l55 -101 -125 -22 c-69 -11 -229
-49 -356 -84 l-230 -63 -3 -79 c-4 -97 5 -110 68 -103 25 3 137 31 250 62 417
113 446 113 900 -10 285 -78 383 -96 520 -96 155 0 220 13 665 135 209 57 324
67 466 42 41 -8 185 -43 320 -80 293 -79 392 -97 524 -97 150 -1 243 18 634
126 331 91 386 89 826 -30 301 -82 379 -96 520 -96 140 0 224 16 523 96 456
124 473 124 917 4 233 -62 261 -67 289 -46 14 10 16 26 14 92 l-3 79 -35 9
c-19 5 -82 23 -140 39 -295 83 -468 118 -578 118 -64 0 -270 -32 -315 -49 -15
-6 -27 -8 -27 -5 0 3 51 83 114 177 270 408 394 704 421 999 l6 68 -1581 0
-1580 0 -2 2367 -3 2368 -100 -130z m-98 -4181 c-2 -3 -147 24 -732 137 -143
27 -411 79 -595 114 -184 35 -490 93 -680 130 -190 36 -394 75 -455 87 -60 11
-114 24 -118 28 -4 4 61 90 145 191 524 629 1491 1834 2188 2728 l245 314 3
-1863 c1 -1025 1 -1864 -1 -1866z m3133 -635 c0 -39 -87 -259 -155 -394 -112
-220 -196 -351 -393 -613 -74 -97 -90 -113 -125 -123 -154 -41 -318 -50 -454
-24 -43 8 -186 44 -318 80 -467 126 -531 126 -985 3 -464 -125 -537 -127 -903
-27 -422 115 -406 112 -587 112 -181 1 -157 5 -610 -118 -322 -87 -439 -87
-760 0 -136 37 -322 86 -372 99 -21 5 -40 27 -84 102 -144 246 -260 533 -309
771 -14 65 -25 124 -25 131 0 9 615 12 3040 12 2201 0 3040 -3 3040 -11z"/>
<path d="M3920 7025 c0 -3 17 -40 39 -83 49 -98 128 -293 181 -447 168 -488
262 -921 327 -1500 23 -201 26 -951 5 -1160 -26 -266 -89 -652 -141 -867 l-18
-78 31 0 c17 0 544 43 1171 95 626 52 1145 95 1152 95 18 0 17 132 -2 313 -67
637 -307 1236 -738 1837 -446 623 -1172 1289 -1878 1721 -71 43 -129 77 -129
74z m748 -763 c758 -620 1317 -1336 1590 -2035 118 -300 185 -578 217 -899 6
-65 6 -68 -15 -68 -12 0 -427 -34 -924 -75 -497 -41 -919 -75 -938 -75 l-35 0
19 98 c23 124 61 392 84 597 23 204 27 925 6 1130 -56 554 -137 973 -269 1393
-25 81 -48 156 -51 166 -6 21 122 -73 316 -232z"/>
</g>
</svg>
